<?xml version="1.0" encoding="utf-8"?>
<!-- Generator: Adobe Illustrator 17.1.0, SVG Export Plug-In . SVG Version: 6.00 Build 0)  -->
<!DOCTYPE svg PUBLIC "-//W3C//DTD SVG 1.1//EN" "http://www.w3.org/Graphics/SVG/1.1/DTD/svg11.dtd">
<svg version="1.1" xmlns="http://www.w3.org/2000/svg" xmlns:xlink="http://www.w3.org/1999/xlink" x="0px" y="0px"
	 viewBox="0 0 40 40" enable-background="new 0 0 40 40" xml:space="preserve">
<g id="Layer_1" display="none">
	<g display="inline">
		<g>
			<path fill="#FFFFFF" d="M40,40H0V0h40V40z M2,38h36V2H2V38z"/>
		</g>
		<rect x="10" y="10" fill="#FFFFFF" width="16" height="4"/>
		<rect x="10" y="18" fill="#FFFFFF" width="20" height="4"/>
		<rect x="10" y="26" fill="#FFFFFF" width="20" height="4"/>
		<rect x="36" y="2" fill="#FFFFFF" width="2" height="2"/>
	</g>
</g>
<g id="Layer_4" display="none">
	<g display="inline">
		<g>
			<path fill="#FFFFFF" d="M40,40H0V0h40V40z M2,38h36V2H2V38z"/>
		</g>
		<rect x="10" y="10" fill="#FFFFFF" width="20" height="4"/>
		<rect x="10" y="18" fill="#FFFFFF" width="20" height="4"/>
		<rect x="10" y="26" fill="#FFFFFF" width="20" height="4"/>
	</g>
</g>
<g id="Layer_5">
	<g>
		<path fill="#FFFFFF" d="M20,0C9,0,0,9,0,20c0,11,9,20,20,20s20-9,20-20C40,9,31,0,20,0z M20,36c-8.8,0-16-7.2-16-16S11.2,4,20,4
			s16,7.2,16,16S28.8,36,20,36z"/>
		<polygon fill="#FFFFFF" points="28.6,13.6 20,22.2 11.4,13.6 8.6,16.4 20,27.8 31.4,16.4 		"/>
	</g>
</g>
<g id="Layer_2" display="none">
	<g display="inline">
		<path fill="#FFFFFF" d="M40,40H0V0h40V40z M2,38h36V2H2V38z"/>
	</g>
	<g display="inline">
		<rect x="6" y="15" fill="#FFFFFF" width="6" height="19"/>
		<circle fill="#FFFFFF" cx="9" cy="9" r="4"/>
		<path fill="#FFFFFF" d="M21,18v-3h-6v19h6V22c5.5-5.3,7-1,7,0v12h6v-7c0,0,0-2,0-5C34,8,21,18,21,18z"/>
	</g>
</g>
<g id="Layer_3" display="none">
	<g display="inline">
		<path fill="#FFFFFF" d="M40,40H0V0h40V40z M2,38h36V2H2V38z"/>
	</g>
	<g display="inline">
		<path fill="#FFFFFF" d="M22.3,20.3L32.6,10H7.4l10.3,10.3C19.3,21.9,20.7,21.9,22.3,20.3z"/>
		<path fill="#FFFFFF" d="M23.7,21.7c-1.2,1.2-2.5,1.8-3.7,1.8s-2.5-0.6-3.7-1.8L6,11.4V30h28V11.4L23.7,21.7z"/>
	</g>
</g>
</svg>
